<svg xmlns="http://www.w3.org/2000/svg" width="64" height="64" viewBox="0 0 64 64" version="1.1">
	<path d="M 16.510 12.637 C 12.116 16.103, 8.391 19.326, 8.234 19.798 C 8.077 20.270, 11.785 23.662, 16.474 27.336 L 25 34.015 25 30.008 C 25 25.441, 25.511 25.273, 33.900 27.072 C 39.887 28.356, 46.310 32.765, 48.575 37.146 C 50.594 41.049, 50.080 47.239, 47.266 52.927 L 45.275 56.950 47.638 58.499 C 49.903 59.982, 50.085 59.911, 52.016 56.773 C 54.590 52.594, 57 44.608, 57 40.261 C 57 25.965, 47.145 16.327, 30.530 14.375 C 25.124 13.739, 25.101 13.722, 24.801 10.035 L 24.500 6.334 16.510 12.637" stroke="none" fill="#000000" fill-rule="evenodd"/>
</svg>